<?xml version="1.0" standalone="no"?>
<!DOCTYPE svg PUBLIC "-//W3C//DTD SVG 20010904//EN"
 "http://www.w3.org/TR/2001/REC-SVG-20010904/DTD/svg10.dtd">
<svg version="1.0" xmlns="http://www.w3.org/2000/svg"
 width="600.000000pt" height="663.000000pt" viewBox="0 0 600.000000 663.000000"
 preserveAspectRatio="xMidYMid meet">
<metadata>
Created by potrace 1.16, written by Peter Selinger 2001-2019
</metadata>
<g transform="translate(0.000000,663.000000) scale(0.100000,-0.100000)"
fill="#000000" stroke="none">
<path d="M2880 6029 c-168 -21 -281 -62 -526 -189 -228 -118 -301 -146 -446
-170 -262 -43 -822 -90 -1073 -90 -61 0 -104 -4 -97 -9 9 -5 2 -15 -26 -34
-84 -59 -123 -151 -116 -278 37 -704 220 -1717 408 -2264 334 -973 975 -1795
1731 -2217 126 -71 256 -128 289 -128 15 0 35 10 45 23 58 67 109 132 107 134
-1 1 -31 -9 -66 -23 -43 -18 -74 -24 -97 -21 -54 9 -316 145 -448 232 -67 45
-161 112 -209 150 l-86 68 -1 61 c0 34 -4 95 -7 137 l-7 77 -60 58 c-254 249
-533 637 -712 989 -248 488 -420 1112 -517 1880 -9 66 -24 188 -35 270 -30
226 -43 381 -36 432 17 124 78 176 221 187 213 18 492 43 554 51 19 2 67 7
105 10 125 12 278 43 380 77 l100 33 9 102 9 101 101 55 c140 75 245 121 351
153 84 26 103 28 276 28 l186 1 -21 21 c-11 11 -35 38 -53 59 -31 37 -34 38
-100 40 -37 1 -97 -2 -133 -6z"/>
<path d="M3343 5881 c96 -27 164 -54 314 -128 l131 -65 7 -141 c3 -78 5 -1084
3 -2235 l-3 -2093 -35 -30 c-134 -113 -270 -211 -390 -281 -36 -21 -60 -38
-55 -38 6 0 60 29 120 65 60 36 114 65 121 65 7 0 19 6 26 13 7 6 31 21 53 32
22 11 42 22 45 25 3 3 22 14 42 25 250 136 487 386 772 815 184 277 402 673
484 880 73 185 162 446 167 492 2 13 13 54 25 91 12 37 19 74 16 83 -3 8 -2
12 3 9 5 -3 9 9 9 27 -1 18 8 64 20 102 12 38 19 81 16 95 -4 19 -3 22 4 12 8
-10 10 -4 9 25 -1 54 23 194 34 194 5 0 9 5 9 11 0 5 -5 7 -12 3 -8 -5 -9 -2
-5 10 4 10 7 27 8 39 0 21 1 21 9 2 5 -13 7 -1 5 35 -2 31 1 78 5 105 37 228
62 597 64 930 1 307 0 322 -20 365 -26 56 -59 94 -74 85 -6 -3 -9 -1 -8 7 4
17 -61 48 -136 64 -34 7 -122 13 -196 14 -375 1 -781 51 -941 116 -33 14 -64
22 -69 19 -6 -4 -10 -1 -10 5 0 6 -4 9 -8 6 -5 -3 -44 6 -88 20 -43 14 -86 27
-94 29 -8 2 -44 12 -79 24 -35 12 -74 21 -85 21 -12 0 -58 13 -102 29 -45 15
-103 31 -130 34 -45 6 -43 5 19 -12z m1037 -878 c231 -533 236 -542 278 -560
25 -10 33 -19 30 -35 -3 -21 -7 -21 -193 -22 -189 -1 -190 -1 -193 21 -3 19 3
23 38 29 23 4 44 13 47 20 2 7 -7 40 -22 73 -32 69 -32 70 -174 69 l-93 0 -25
-54 c-32 -70 -25 -91 33 -105 32 -8 44 -16 44 -30 0 -15 -8 -19 -32 -20 -18
-1 -64 -2 -103 -3 -105 -4 -145 3 -145 24 0 11 12 22 29 28 54 19 76 62 283
532 60 138 95 200 113 200 6 0 45 -75 85 -167z"/>
<path d="M4172 4768 c-23 -51 -42 -95 -42 -98 0 -3 39 -6 86 -7 l86 -1 -7 26
c-6 29 -72 172 -78 172 -2 0 -22 -42 -45 -92z"/>
</g>
</svg>
